<svg width="38" height="39" fill="none" xmlns="http://www.w3.org/2000/svg"><path d="M0 19.41a19.5 19.5 0 0 0 3.202 10.717 19.065 19.065 0 0 0 8.527 7.104 18.735 18.735 0 0 0 10.978 1.098 18.914 18.914 0 0 0 9.728-5.279 19.383 19.383 0 0 0 5.2-9.877c.733-3.742.357-7.62-1.081-11.145a19.23 19.23 0 0 0-6.998-8.657A18.797 18.797 0 0 0 19 .12c-5.04 0-9.872 2.032-13.435 5.65C2.002 9.387 0 14.294 0 19.41Zm31.418 10.678L8.482 6.803a16.13 16.13 0 0 1 11.162-3.81c4.058.188 7.9 1.91 10.773 4.826a16.653 16.653 0 0 1 4.753 10.938 16.697 16.697 0 0 1-3.752 11.331Zm-22.95 1.943A16.618 16.618 0 0 1 2.78 20.794 16.701 16.701 0 0 1 6.57 8.759L29.49 32.031a16.14 16.14 0 0 1-10.511 3.905A16.14 16.14 0 0 1 8.469 32.03Z" fill="#000"/></svg>