<svg width="194" height="38" viewBox="0 0 194 38" fill="none" xmlns="http://www.w3.org/2000/svg">
<rect width="194" height="38" rx="5" transform="matrix(1 0 0 -1 0 38)" fill="#133C82"/>
<path d="M10.52 26C10.4133 26 10.3173 25.9627 10.232 25.888C10.1573 25.8027 10.12 25.7067 10.12 25.6V15.2C10.12 15.0827 10.1573 14.9867 10.232 14.912C10.3173 14.8373 10.4133 14.8 10.52 14.8H12.216C12.4827 14.8 12.664 14.9013 12.76 15.104L16.664 21.248V15.2C16.664 15.0827 16.7013 14.9867 16.776 14.912C16.8613 14.8373 16.9573 14.8 17.064 14.8H18.984C19.1013 14.8 19.1973 14.8373 19.272 14.912C19.3467 14.9867 19.384 15.0827 19.384 15.2V25.584C19.384 25.7013 19.3467 25.8027 19.272 25.888C19.1973 25.9627 19.1013 26 18.984 26H17.272C17.0373 26 16.8613 25.8987 16.744 25.696L12.84 19.776V25.6C12.84 25.7067 12.8027 25.8027 12.728 25.888C12.6533 25.9627 12.5573 26 12.44 26H10.52ZM20.98 26C20.8947 26 20.8147 25.968 20.74 25.904C20.676 25.8293 20.644 25.7493 20.644 25.664C20.644 25.6 20.6493 25.552 20.66 25.52L24.42 15.248C24.452 15.12 24.5213 15.0133 24.628 14.928C24.7347 14.8427 24.8733 14.8 25.044 14.8H27.412C27.5827 14.8 27.7213 14.8427 27.828 14.928C27.9347 15.0133 28.004 15.12 28.036 15.248L31.78 25.52L31.812 25.664C31.812 25.7493 31.7747 25.8293 31.7 25.904C31.636 25.968 31.556 26 31.46 26H29.492C29.236 26 29.0653 25.888 28.98 25.664L28.356 24.032H24.084L23.476 25.664C23.3907 25.888 23.2147 26 22.948 26H20.98ZM27.716 21.728L26.228 17.504L24.74 21.728H27.716ZM33.4731 26C33.3665 26 33.2705 25.9627 33.1851 25.888C33.1105 25.8027 33.0731 25.7067 33.0731 25.6V15.2C33.0731 15.0827 33.1105 14.9867 33.1851 14.912C33.2705 14.8373 33.3665 14.8 33.4731 14.8H35.2011C35.4571 14.8 35.6438 14.9173 35.7611 15.152L38.5771 20.192L41.3931 15.152C41.5105 14.9173 41.6971 14.8 41.9531 14.8H43.6651C43.7825 14.8 43.8785 14.8373 43.9531 14.912C44.0385 14.9867 44.0811 15.0827 44.0811 15.2V25.6C44.0811 25.7173 44.0385 25.8133 43.9531 25.888C43.8785 25.9627 43.7825 26 43.6651 26H41.7611C41.6438 26 41.5425 25.9627 41.4571 25.888C41.3825 25.8133 41.3451 25.7173 41.3451 25.6V19.6L39.5531 22.944C39.4145 23.1893 39.2278 23.312 38.9931 23.312H38.1611C38.0225 23.312 37.9105 23.28 37.8251 23.216C37.7398 23.152 37.6651 23.0613 37.6011 22.944L35.7931 19.6V25.6C35.7931 25.7067 35.7558 25.8027 35.6811 25.888C35.6065 25.9627 35.5105 26 35.3931 26H33.4731ZM45.6831 26C45.5978 26 45.5178 25.968 45.4431 25.904C45.3791 25.8293 45.3471 25.7493 45.3471 25.664C45.3471 25.6 45.3525 25.552 45.3631 25.52L49.1231 15.248C49.1551 15.12 49.2245 15.0133 49.3311 14.928C49.4378 14.8427 49.5765 14.8 49.7471 14.8H52.1151C52.2858 14.8 52.4245 14.8427 52.5311 14.928C52.6378 15.0133 52.7071 15.12 52.7391 15.248L56.4831 25.52L56.5151 25.664C56.5151 25.7493 56.4778 25.8293 56.4031 25.904C56.3391 25.968 56.2591 26 56.1631 26H54.1951C53.9391 26 53.7685 25.888 53.6831 25.664L53.0591 24.032H48.7871L48.1791 25.664C48.0938 25.888 47.9178 26 47.6511 26H45.6831ZM52.4191 21.728L50.9311 17.504L49.4431 21.728H52.4191ZM58.1763 26C58.0696 26 57.9736 25.9627 57.8883 25.888C57.8136 25.8027 57.7763 25.7067 57.7763 25.6V15.2C57.7763 15.0827 57.8136 14.9867 57.8883 14.912C57.9736 14.8373 58.0696 14.8 58.1763 14.8H59.8723C60.1389 14.8 60.3203 14.9013 60.4163 15.104L64.3203 21.248V15.2C64.3203 15.0827 64.3576 14.9867 64.4323 14.912C64.5176 14.8373 64.6136 14.8 64.7203 14.8H66.6403C66.7576 14.8 66.8536 14.8373 66.9283 14.912C67.0029 14.9867 67.0403 15.0827 67.0403 15.2V25.584C67.0403 25.7013 67.0029 25.8027 66.9283 25.888C66.8536 25.9627 66.7576 26 66.6403 26H64.9283C64.6936 26 64.5176 25.8987 64.4003 25.696L60.4963 19.776V25.6C60.4963 25.7067 60.4589 25.8027 60.3843 25.888C60.3096 25.9627 60.2136 26 60.0963 26H58.1763ZM73.9003 26.16C72.3643 26.16 71.1643 25.7867 70.3003 25.04C69.4363 24.2827 68.9776 23.2107 68.9243 21.824C68.9136 21.5147 68.9083 21.024 68.9083 20.352C68.9083 19.68 68.9136 19.1893 68.9243 18.88C68.9776 17.5253 69.4416 16.48 70.3163 15.744C71.2016 15.008 72.3963 14.64 73.9003 14.64C74.9136 14.64 75.7936 14.8053 76.5403 15.136C77.2976 15.4667 77.8736 15.888 78.2683 16.4C78.6736 16.912 78.8869 17.44 78.9083 17.984C78.9083 18.08 78.8709 18.16 78.7963 18.224C78.7323 18.288 78.6523 18.32 78.5563 18.32H76.2203C76.1136 18.32 76.0283 18.304 75.9643 18.272C75.9003 18.24 75.8469 18.1813 75.8043 18.096C75.6656 17.7867 75.4469 17.52 75.1483 17.296C74.8496 17.0613 74.4336 16.944 73.9003 16.944C72.6309 16.944 71.9643 17.616 71.9003 18.96C71.8896 19.2587 71.8843 19.7227 71.8843 20.352C71.8843 20.9707 71.8896 21.4347 71.9003 21.744C71.9643 23.152 72.6469 23.856 73.9483 23.856C74.5776 23.856 75.0789 23.696 75.4523 23.376C75.8363 23.0453 76.0283 22.544 76.0283 21.872V21.568H74.5243C74.4069 21.568 74.3109 21.5307 74.2363 21.456C74.1616 21.3707 74.1243 21.2693 74.1243 21.152V19.968C74.1243 19.8507 74.1616 19.7547 74.2363 19.68C74.3109 19.5947 74.4069 19.552 74.5243 19.552H78.5563C78.6736 19.552 78.7696 19.5947 78.8443 19.68C78.9189 19.7547 78.9563 19.8507 78.9563 19.968V21.792C78.9563 22.6987 78.7483 23.4827 78.3323 24.144C77.9163 24.7947 77.3243 25.296 76.5563 25.648C75.7989 25.9893 74.9136 26.16 73.9003 26.16ZM79.9019 26C79.8165 26 79.7365 25.968 79.6619 25.904C79.5979 25.8293 79.5659 25.7493 79.5659 25.664C79.5659 25.6 79.5712 25.552 79.5819 25.52L83.3419 15.248C83.3739 15.12 83.4432 15.0133 83.5499 14.928C83.6565 14.8427 83.7952 14.8 83.9659 14.8H86.3339C86.5045 14.8 86.6432 14.8427 86.7499 14.928C86.8565 15.0133 86.9259 15.12 86.9579 15.248L90.7019 25.52L90.7339 25.664C90.7339 25.7493 90.6965 25.8293 90.6219 25.904C90.5579 25.968 90.4779 26 90.3819 26H88.4139C88.1579 26 87.9872 25.888 87.9019 25.664L87.2779 24.032H83.0059L82.3979 25.664C82.3125 25.888 82.1365 26 81.8699 26H79.9019ZM86.6379 21.728L85.1499 17.504L83.6619 21.728H86.6379ZM92.395 26C92.2883 26 92.1923 25.9627 92.107 25.888C92.0323 25.8027 91.995 25.7067 91.995 25.6V15.2C91.995 15.0827 92.0323 14.9867 92.107 14.912C92.1923 14.8373 92.2883 14.8 92.395 14.8H94.091C94.3577 14.8 94.539 14.9013 94.635 15.104L98.539 21.248V15.2C98.539 15.0827 98.5763 14.9867 98.651 14.912C98.7363 14.8373 98.8323 14.8 98.939 14.8H100.859C100.976 14.8 101.072 14.8373 101.147 14.912C101.222 14.9867 101.259 15.0827 101.259 15.2V25.584C101.259 25.7013 101.222 25.8027 101.147 25.888C101.072 25.9627 100.976 26 100.859 26H99.147C98.9123 26 98.7363 25.8987 98.619 25.696L94.715 19.776V25.6C94.715 25.7067 94.6777 25.8027 94.603 25.888C94.5283 25.9627 94.4323 26 94.315 26H92.395ZM103.895 26C103.788 26 103.692 25.9627 103.607 25.888C103.532 25.8027 103.495 25.7067 103.495 25.6V15.2C103.495 15.0827 103.532 14.9867 103.607 14.912C103.692 14.8373 103.788 14.8 103.895 14.8H106.007C106.124 14.8 106.22 14.8373 106.295 14.912C106.37 14.9867 106.407 15.0827 106.407 15.2V23.584H111.255C111.372 23.584 111.468 23.6267 111.543 23.712C111.618 23.7867 111.655 23.8827 111.655 24V25.6C111.655 25.7067 111.618 25.8027 111.543 25.888C111.468 25.9627 111.372 26 111.255 26H103.895ZM113.442 26C113.335 26 113.239 25.9627 113.154 25.888C113.079 25.8027 113.042 25.7067 113.042 25.6V15.2C113.042 15.0827 113.079 14.9867 113.154 14.912C113.239 14.8373 113.335 14.8 113.442 14.8H115.586C115.703 14.8 115.799 14.8373 115.874 14.912C115.959 14.9867 116.002 15.0827 116.002 15.2V25.6C116.002 25.7173 115.959 25.8133 115.874 25.888C115.799 25.9627 115.703 26 115.586 26H113.442ZM118.629 26C118.523 26 118.427 25.9627 118.341 25.888C118.267 25.8027 118.229 25.7067 118.229 25.6V15.2C118.229 15.0827 118.267 14.9867 118.341 14.912C118.427 14.8373 118.523 14.8 118.629 14.8H120.645C120.763 14.8 120.859 14.8373 120.933 14.912C121.008 14.9867 121.045 15.0827 121.045 15.2V18.752L124.005 15.104C124.133 14.9013 124.341 14.8 124.629 14.8H126.933C127.029 14.8 127.109 14.8373 127.173 14.912C127.237 14.976 127.269 15.0507 127.269 15.136C127.269 15.2107 127.253 15.2747 127.221 15.328L123.381 20.16L127.509 25.472C127.552 25.5147 127.573 25.5787 127.573 25.664C127.573 25.7493 127.541 25.8293 127.477 25.904C127.413 25.968 127.333 26 127.237 26H124.853C124.597 26 124.384 25.8933 124.213 25.68L121.045 21.728V25.6C121.045 25.7173 121.008 25.8133 120.933 25.888C120.859 25.9627 120.763 26 120.645 26H118.629ZM129.239 26C129.132 26 129.036 25.9627 128.951 25.888C128.876 25.8027 128.839 25.7067 128.839 25.6V15.2C128.839 15.0827 128.876 14.9867 128.951 14.912C129.036 14.8373 129.132 14.8 129.239 14.8H131.351C131.468 14.8 131.564 14.8373 131.639 14.912C131.713 14.9867 131.751 15.0827 131.751 15.2V23.584H136.599C136.716 23.584 136.812 23.6267 136.887 23.712C136.961 23.7867 136.999 23.8827 136.999 24V25.6C136.999 25.7067 136.961 25.8027 136.887 25.888C136.812 25.9627 136.716 26 136.599 26H129.239ZM137.746 26C137.66 26 137.58 25.968 137.506 25.904C137.442 25.8293 137.41 25.7493 137.41 25.664C137.41 25.6 137.415 25.552 137.426 25.52L141.186 15.248C141.218 15.12 141.287 15.0133 141.394 14.928C141.5 14.8427 141.639 14.8 141.81 14.8H144.178C144.348 14.8 144.487 14.8427 144.594 14.928C144.7 15.0133 144.77 15.12 144.802 15.248L148.546 25.52L148.578 25.664C148.578 25.7493 148.54 25.8293 148.466 25.904C148.402 25.968 148.322 26 148.226 26H146.258C146.002 26 145.831 25.888 145.746 25.664L145.122 24.032H140.85L140.242 25.664C140.156 25.888 139.98 26 139.714 26H137.746ZM144.482 21.728L142.994 17.504L141.506 21.728H144.482ZM150.239 26C150.132 26 150.036 25.9627 149.951 25.888C149.876 25.8027 149.839 25.7067 149.839 25.6V15.2C149.839 15.0827 149.876 14.9867 149.951 14.912C150.036 14.8373 150.132 14.8 150.239 14.8H154.591C155.988 14.8 157.076 15.12 157.855 15.76C158.644 16.3893 159.039 17.2853 159.039 18.448C159.039 19.1947 158.863 19.8293 158.511 20.352C158.159 20.8747 157.673 21.2747 157.055 21.552L159.247 25.488C159.279 25.552 159.295 25.6107 159.295 25.664C159.295 25.7493 159.257 25.8293 159.183 25.904C159.119 25.968 159.044 26 158.959 26H156.831C156.521 26 156.303 25.856 156.175 25.568L154.351 22.048H152.719V25.6C152.719 25.7173 152.676 25.8133 152.591 25.888C152.516 25.9627 152.42 26 152.303 26H150.239ZM154.559 19.776C155.049 19.776 155.423 19.6587 155.679 19.424C155.935 19.1787 156.063 18.8427 156.063 18.416C156.063 17.9893 155.935 17.6533 155.679 17.408C155.433 17.152 155.06 17.024 154.559 17.024H152.719V19.776H154.559ZM160.853 26C160.736 26 160.635 25.9627 160.549 25.888C160.475 25.8133 160.437 25.7173 160.437 25.6V24.464C160.437 24.144 160.571 23.8827 160.837 23.68L162.501 22.048C163.472 21.3013 164.208 20.72 164.709 20.304C165.211 19.888 165.589 19.5093 165.845 19.168C166.101 18.8267 166.229 18.5013 166.229 18.192C166.229 17.3493 165.813 16.928 164.981 16.928C164.544 16.928 164.208 17.0613 163.973 17.328C163.739 17.584 163.584 17.9093 163.509 18.304C163.445 18.5493 163.264 18.672 162.965 18.672H160.965C160.869 18.672 160.789 18.64 160.725 18.576C160.661 18.512 160.629 18.432 160.629 18.336C160.651 17.6533 160.837 17.0293 161.189 16.464C161.552 15.888 162.059 15.4347 162.709 15.104C163.371 14.7627 164.128 14.592 164.981 14.592C165.877 14.592 166.645 14.736 167.285 15.024C167.925 15.312 168.411 15.7173 168.741 16.24C169.072 16.7627 169.237 17.3707 169.237 18.064C169.237 18.8107 169.003 19.4933 168.533 20.112C168.075 20.72 167.371 21.3813 166.421 22.096L164.949 23.584H169.061C169.179 23.584 169.275 23.6213 169.349 23.696C169.435 23.7707 169.477 23.8667 169.477 23.984V25.6C169.477 25.7173 169.435 25.8133 169.349 25.888C169.275 25.9627 169.179 26 169.061 26H160.853ZM176.333 26C176.227 26 176.131 25.9627 176.045 25.888C175.971 25.8027 175.933 25.7067 175.933 25.6V23.792H170.957C170.84 23.792 170.744 23.7547 170.669 23.68C170.595 23.6053 170.557 23.5093 170.557 23.392V21.872C170.557 21.712 170.616 21.5467 170.733 21.376L175.389 15.072C175.539 14.8907 175.736 14.8 175.981 14.8H178.317C178.435 14.8 178.531 14.8373 178.605 14.912C178.68 14.9867 178.717 15.0827 178.717 15.2V21.408H180.125C180.253 21.408 180.355 21.4507 180.429 21.536C180.504 21.6107 180.541 21.7013 180.541 21.808V23.392C180.541 23.5093 180.504 23.6053 180.429 23.68C180.355 23.7547 180.259 23.792 180.141 23.792H178.717V25.6C178.717 25.7067 178.68 25.8027 178.605 25.888C178.531 25.9627 178.435 26 178.317 26H176.333ZM175.997 21.52V17.744L173.309 21.52H175.997Z" fill="white"/>
</svg>
