<svg width="132" height="38" fill="none" xmlns="http://www.w3.org/2000/svg"><rect width="132" height="38" rx="5" fill="#fff"/><path d="M34.428 23a.324.324 0 0 1-.238-.098.324.324 0 0 1-.098-.238V13.55c0-.103.028-.187.084-.252a.341.341 0 0 1 .252-.098h7.336c.103 0 .187.033.252.098s.098.15.098.252v9.114a.341.341 0 0 1-.098.252.373.373 0 0 1-.252.084h-1.26a.324.324 0 0 1-.238-.098.324.324 0 0 1-.098-.238V14.95h-4.13v7.714a.324.324 0 0 1-.098.238.296.296 0 0 1-.238.098h-1.274Zm12.915.14c-1.092 0-1.936-.28-2.534-.84-.597-.57-.92-1.344-.966-2.324l-.014-.616.014-.616c.047-.97.374-1.74.98-2.31.607-.57 1.447-.854 2.52-.854 1.074 0 1.914.285 2.52.854.607.57.934 1.34.98 2.31.01.112.014.317.014.616s-.004.504-.014.616c-.046.98-.368 1.755-.966 2.324-.597.56-1.442.84-2.534.84Zm0-1.386c.495 0 .878-.154 1.148-.462.27-.317.42-.78.448-1.386.01-.093.014-.275.014-.546 0-.27-.004-.453-.014-.546-.028-.607-.177-1.064-.448-1.372-.27-.317-.653-.476-1.148-.476-.494 0-.877.159-1.148.476-.27.308-.42.765-.448 1.372l-.014.546.014.546c.028.607.178 1.069.448 1.386.27.308.654.462 1.148.462Zm4.785 2.786a.324.324 0 0 1-.238-.098.296.296 0 0 1-.098-.238v-2.352c0-.093.033-.173.098-.238a.324.324 0 0 1 .238-.098h.112c.364 0 .63-.29.798-.868.168-.579.252-1.48.252-2.702v-1.89c0-.103.033-.182.098-.238a.324.324 0 0 1 .238-.098h4.984c.103 0 .182.033.238.098a.296.296 0 0 1 .098.238v5.446h.63c.103 0 .182.033.238.098a.296.296 0 0 1 .098.238v2.366a.296.296 0 0 1-.098.238.297.297 0 0 1-.238.098h-1.148a.341.341 0 0 1-.252-.098.324.324 0 0 1-.098-.238V23h-4.452v1.204a.296.296 0 0 1-.098.238.297.297 0 0 1-.238.098h-1.162Zm4.998-3.038v-4.298h-2.072v.938c0 1.605-.219 2.73-.658 3.374l2.73-.014ZM61.536 23a.324.324 0 0 1-.239-.098.324.324 0 0 1-.098-.238v-6.608c0-.093.033-.173.098-.238a.324.324 0 0 1 .238-.098h5.992c.103 0 .182.033.238.098a.296.296 0 0 1 .098.238v6.608a.324.324 0 0 1-.098.238.296.296 0 0 1-.238.098h-1.162a.324.324 0 0 1-.238-.098.324.324 0 0 1-.098-.238v-5.46h-2.996v5.46a.324.324 0 0 1-.098.238.296.296 0 0 1-.238.098h-1.162Zm14.858-7.28c.084 0 .159.033.224.098a.265.265 0 0 1 .098.21v6.636a.324.324 0 0 1-.098.238.324.324 0 0 1-.238.098h-1.162a.324.324 0 0 1-.238-.098.324.324 0 0 1-.098-.238V18.17l-3.36 4.606a.408.408 0 0 1-.378.224H70.08a.334.334 0 0 1-.224-.084.324.324 0 0 1-.098-.238v-6.622c0-.093.033-.173.098-.238a.324.324 0 0 1 .238-.098h1.162c.103 0 .182.033.238.098a.296.296 0 0 1 .098.238v4.508l3.36-4.62c.103-.15.229-.224.378-.224h1.064Zm5.237 7.42c-1.027 0-1.848-.285-2.464-.854-.607-.57-.929-1.358-.966-2.366l-.014-.56.014-.56c.037-1.008.359-1.797.966-2.366.616-.57 1.437-.854 2.464-.854.728 0 1.344.13 1.848.392.513.261.891.583 1.134.966.252.373.387.728.406 1.064a.266.266 0 0 1-.098.238.324.324 0 0 1-.238.098H83.45a.398.398 0 0 1-.224-.056.777.777 0 0 1-.14-.224c-.14-.364-.327-.625-.56-.784-.224-.159-.514-.238-.868-.238-.476 0-.85.154-1.12.462-.271.299-.416.756-.434 1.372l-.014.518.014.462c.037 1.223.555 1.834 1.554 1.834.364 0 .658-.08.882-.238.224-.159.406-.42.546-.784a.578.578 0 0 1 .14-.21.339.339 0 0 1 .224-.07h1.232c.093 0 .172.033.238.098a.266.266 0 0 1 .098.238c-.019.327-.15.677-.392 1.05-.243.373-.616.695-1.12.966-.504.27-1.13.406-1.876.406Zm6.962 0c-.476 0-.915-.093-1.316-.28a2.502 2.502 0 0 1-.938-.784 1.866 1.866 0 0 1-.336-1.078c0-.635.256-1.148.77-1.54.513-.392 1.218-.658 2.114-.798l1.918-.28v-.294c0-.41-.103-.719-.308-.924-.206-.205-.537-.308-.994-.308-.308 0-.56.06-.756.182a2.326 2.326 0 0 0-.448.336c-.112.121-.187.2-.224.238-.038.112-.108.168-.21.168h-1.078a.334.334 0 0 1-.224-.084.303.303 0 0 1-.084-.224c.009-.233.121-.5.336-.798.224-.299.564-.555 1.022-.77.457-.215 1.017-.322 1.68-.322 1.101 0 1.904.247 2.408.742s.756 1.143.756 1.946v4.396a.324.324 0 0 1-.098.238.296.296 0 0 1-.238.098H91.21a.324.324 0 0 1-.238-.098.324.324 0 0 1-.098-.238v-.546c-.206.299-.5.546-.882.742-.374.187-.84.28-1.4.28Zm.476-1.33c.513 0 .933-.168 1.26-.504.326-.336.49-.826.49-1.47v-.294l-1.4.224c-.542.084-.952.22-1.232.406-.271.187-.406.415-.406.686 0 .299.126.532.378.7.252.168.555.252.91.252ZM96.703 23a.324.324 0 0 1-.238-.098.324.324 0 0 1-.098-.238v-5.46h-2.282a.324.324 0 0 1-.238-.098.341.341 0 0 1-.098-.252v-.798c0-.103.032-.182.098-.238a.324.324 0 0 1 .238-.098h6.356c.102 0 .186.033.252.098a.325.325 0 0 1 .098.238v.798a.375.375 0 0 1-.098.252.343.343 0 0 1-.252.098h-2.268v5.46a.324.324 0 0 1-.098.238.296.296 0 0 1-.238.098h-1.134Zm8.348.14c-1.027 0-1.848-.285-2.464-.854-.607-.57-.929-1.358-.966-2.366l-.014-.56.014-.56c.037-1.008.359-1.797.966-2.366.616-.57 1.437-.854 2.464-.854.728 0 1.344.13 1.848.392.513.261.891.583 1.134.966.252.373.387.728.406 1.064a.269.269 0 0 1-.098.238.326.326 0 0 1-.238.098h-1.232a.397.397 0 0 1-.224-.056.754.754 0 0 1-.14-.224c-.14-.364-.327-.625-.56-.784-.224-.159-.514-.238-.868-.238-.476 0-.85.154-1.12.462-.271.299-.416.756-.434 1.372l-.014.518.014.462c.037 1.223.555 1.834 1.554 1.834.364 0 .658-.08.882-.238.224-.159.406-.42.546-.784a.565.565 0 0 1 .14-.21.337.337 0 0 1 .224-.07h1.232c.093 0 .172.033.238.098a.269.269 0 0 1 .098.238c-.019.327-.15.677-.392 1.05-.243.373-.616.695-1.12.966-.504.27-1.13.406-1.876.406Zm10.658-7.42c.102 0 .182.033.238.098a.297.297 0 0 1 .098.238v6.608a.325.325 0 0 1-.098.238.297.297 0 0 1-.238.098h-1.19a.323.323 0 0 1-.238-.098.321.321 0 0 1-.098-.238v-2.142h-1.246l-1.386 2.268c-.084.14-.201.21-.35.21h-1.162a.285.285 0 0 1-.21-.084.269.269 0 0 1-.084-.196c0-.084.028-.159.084-.224l1.47-2.31c-.439-.187-.77-.457-.994-.812-.224-.364-.336-.793-.336-1.288 0-.784.242-1.372.728-1.764.494-.401 1.213-.602 2.156-.602h2.856Zm-1.498 1.33h-1.316c-.439 0-.761.08-.966.238-.196.159-.294.425-.294.798 0 .345.098.616.294.812.196.196.49.294.882.294h1.4V17.05ZM18 9.313c-4.817 0-8.719 4.336-8.719 9.687 0 5.351 3.903 9.688 8.719 9.688 4.817 0 8.719-4.337 8.719-9.688 0-5.351-3.903-9.688-8.719-9.688Zm4.282 6.636-1.43 7.493c-.106.531-.391.66-.788.41l-2.18-1.785-1.051 1.125c-.116.129-.214.238-.44.238l.155-2.465 4.04-4.055c.176-.172-.04-.27-.272-.098l-4.992 3.492-2.151-.746c-.468-.164-.479-.52.098-.77l8.406-3.601c.39-.156.731.106.605.762Z" fill="#295093"/></svg>